<svg width="445" height="445" viewBox="0 0 445 445" fill="none" xmlns="http://www.w3.org/2000/svg">
<g clip-path="url(#clip0_962_5668)">
<path d="M395.354 338.658L395.345 338.858L405.793 445H329.556L319.674 379.81L315.325 443.328L237.035 442.493L245.351 359.1L252.423 320.446V320.438L253.485 314.621H393.275L393.458 316.727L395.354 338.658Z" fill="#2F2E41"/>
<path d="M193.881 400.188C201.955 401.601 210.374 392.865 212.685 380.674C213.697 375.338 213.371 370.225 212.007 366.044L213.245 359.016L234.021 264.484C234.021 264.484 272.278 190.958 272.277 178.193C272.276 165.429 261.21 159.169 261.21 159.169L246.236 159.303L199.277 269.496L190.82 350.924L189.452 362.096C186.641 365.546 184.458 370.22 183.447 375.556C181.135 387.747 185.807 398.774 193.881 400.188Z" fill="#FFB6B6"/>
<path d="M346.208 113.62L332.29 82.6973L287.056 90.2191L284.012 126.601L346.208 113.62Z" fill="#FFB6B6"/>
<path opacity="0.1" d="M346.208 113.62L332.29 82.6973L287.056 90.2191L284.012 126.601L346.208 113.62Z" fill="black"/>
<path d="M444.503 177.974C444.503 177.974 412.317 120.307 406.228 114.456C403.517 111.852 399.256 111.816 395.36 112.575L350.555 97.7411L335.369 89.543L334.368 105.14L284.51 113.738C284.787 104.226 286.184 100.608 286.184 100.608L267.916 121.142L232.251 137.858L232.27 138.008C229.653 138.886 227.172 140.388 225.292 142.872C218.333 152.066 199.195 264.058 199.195 264.058L240.08 272.415L245.644 238.868L249.649 269.072L252.693 325.486C252.693 325.486 308.366 371.453 335.332 354.738C362.298 338.023 395.354 338.858 395.354 338.858L396.179 312.709C396.766 311.808 397.094 311.278 397.094 311.278L396.224 218.522V193.84C402.851 202.71 410.848 210.339 420.146 213.912C450.592 225.613 444.503 177.974 444.503 177.974Z" fill="#E6E6E6"/>
<path d="M332.252 383.936H16.2087C7.27106 383.936 0 376.95 0 368.363V207.067C0 198.481 7.27106 191.494 16.2087 191.494H332.252C341.189 191.494 348.46 198.481 348.46 207.067V368.363C348.46 376.95 341.189 383.936 332.252 383.936Z" fill="white"/>
<path d="M332.252 383.936H16.2087C7.27106 383.936 0 376.95 0 368.363V207.067C0 198.481 7.27106 191.494 16.2087 191.494H332.252C341.189 191.494 348.46 198.481 348.46 207.067V368.363C348.46 376.95 341.189 383.936 332.252 383.936ZM16.2087 194.095C8.76387 194.095 2.70674 199.914 2.70674 207.067V368.363C2.70674 375.516 8.76387 381.336 16.2087 381.336H332.252C339.696 381.336 345.754 375.516 345.754 368.363V207.067C345.754 199.914 339.696 194.095 332.252 194.095H16.2087Z" fill="#3F3D56"/>
<path d="M307.861 210.998C310.103 210.998 311.921 209.252 311.921 207.097C311.921 204.943 310.103 203.196 307.861 203.196C305.619 203.196 303.801 204.943 303.801 207.097C303.801 209.252 305.619 210.998 307.861 210.998Z" fill="#3F3D56"/>
<path d="M318.685 210.998C320.927 210.998 322.745 209.252 322.745 207.097C322.745 204.943 320.927 203.196 318.685 203.196C316.443 203.196 314.625 204.943 314.625 207.097C314.625 209.252 316.443 210.998 318.685 210.998Z" fill="#3F3D56"/>
<path d="M329.513 210.998C331.756 210.998 333.573 209.252 333.573 207.097C333.573 204.943 331.756 203.196 329.513 203.196C327.271 203.196 325.453 204.943 325.453 207.097C325.453 209.252 327.271 210.998 329.513 210.998Z" fill="#3F3D56"/>
<path d="M23.0066 270.161C21.8872 270.161 20.9766 271.036 20.9766 272.112C20.9766 272.636 21.1874 273.121 21.57 273.479C21.9559 273.859 22.4614 274.062 23.0066 274.062H326.806C327.925 274.062 328.836 273.187 328.836 272.112C328.836 271.587 328.625 271.102 328.242 270.744C327.856 270.364 327.351 270.161 326.806 270.161H23.0066Z" fill="#E6E6E6"/>
<path d="M288.912 269.511V274.712H23.0075C22.2632 274.712 21.5865 274.426 21.0993 273.945C20.5985 273.477 20.3008 272.826 20.3008 272.111C20.3008 270.681 21.5188 269.511 23.0075 269.511H288.912Z" fill="#FFC200"/>
<path d="M323.422 259.759H296.355C293.37 259.759 290.941 257.426 290.941 254.558C290.941 251.689 293.37 249.356 296.355 249.356H323.422C326.407 249.356 328.836 251.689 328.836 254.558C328.836 257.426 326.407 259.759 323.422 259.759Z" fill="#E6E6E6"/>
<path d="M146.132 232.453H25.0385C22.0535 232.453 19.625 230.12 19.625 227.252C19.625 224.383 22.0535 222.051 25.0385 222.051H146.132C149.117 222.051 151.546 224.383 151.546 227.252C151.546 230.12 149.117 232.453 146.132 232.453Z" fill="#E6E6E6"/>
<path d="M23.0066 328.674C21.8872 328.674 20.9766 329.549 20.9766 330.624C20.9766 331.149 21.1874 331.634 21.57 331.992C21.9559 332.371 22.4614 332.575 23.0066 332.575H326.806C327.925 332.575 328.836 331.7 328.836 330.624C328.836 330.1 328.625 329.615 328.242 329.257C327.856 328.877 327.351 328.674 326.806 328.674H23.0066Z" fill="#E6E6E6"/>
<path d="M184.703 328.023V333.225H23.0075C22.2632 333.225 21.5865 332.938 21.0993 332.457C20.5985 331.989 20.3008 331.339 20.3008 330.624C20.3008 329.194 21.5188 328.023 23.0075 328.023H184.703Z" fill="#FFC200"/>
<path d="M323.422 318.271H296.355C293.37 318.271 290.941 315.939 290.941 313.07C290.941 310.202 293.37 307.869 296.355 307.869H323.422C326.407 307.869 328.836 310.202 328.836 313.07C328.836 315.939 326.407 318.271 323.422 318.271Z" fill="#E6E6E6"/>
<path d="M406.319 202.611L357.672 280.41C357.672 280.41 353.028 280.011 351.148 288.735C348.689 300.148 345.442 320.7 353.74 324.626C356.783 326.065 366.085 310.804 368.831 308.891C372.295 305.415 380.417 291.416 377.093 282.468C372.706 270.661 426.985 228.203 426.985 228.203C426.985 228.203 449.011 206.203 444.742 187.256C440.473 168.309 406.319 202.611 406.319 202.611Z" fill="#FFB6B6"/>
<path d="M309.417 90.5536C334.281 88.9268 343.983 68.5197 342.262 44.2419C340.541 19.964 328.05 1.00888 303.186 2.63563C278.322 4.26238 269.219 24.6303 270.94 48.9082C272.661 73.1861 284.554 92.1803 309.417 90.5536Z" fill="#FFB6B6"/>
<path d="M302.638 1.37332C272.429 3.34982 268.448 32.8265 269.428 46.6491C269.732 50.9478 272.576 48.9713 277.46 42.2159C281.249 36.9746 277.093 23.6321 281.936 19.737C290.924 12.5091 294.177 21.1548 304.047 21.2485C314.62 20.5567 317.238 11.132 327.251 16.7723C332.236 19.5809 327.998 30.6934 332.331 34.9282C337.459 39.94 343.598 44.0281 343.322 40.1253C342.342 26.3027 332.848 -0.603174 302.638 1.37332Z" fill="#2F2E41"/>
<path d="M322.957 82.9509C320.866 83.6467 318.479 84.4235 318.479 84.4235C318.479 84.4235 314.897 84.5206 314.634 85.0185C313.431 87.2237 299.92 85.4205 297.314 87.2838C296.145 88.216 295.39 89.2716 295.112 90.359C293.59 94.6755 294.395 93.6262 297.599 97.4459C298.536 98.6615 299.923 99.7431 301.681 100.627C306.747 103.002 315.149 102.4 321.093 100.167C327.037 97.9339 331.002 94.4402 334.331 90.9412C336.101 89.1738 337.556 87.3283 338.674 85.4321C339.638 83.5152 340.284 81.5683 340.604 79.6159C342.203 71.9822 344.397 63.4893 342.899 55.9537C340.013 56.0432 339.447 62.4664 336.974 63.6106C333.875 65.0464 333.364 72.2065 332.339 74.0761C329.92 78.5711 329.78 80.613 322.957 82.9509Z" fill="#2F2E41"/>
<path d="M289.972 82.5405C292.005 83.3792 294.328 84.319 294.328 84.319C294.328 84.319 297.893 84.6635 298.118 85.1784C299.153 87.4611 312.764 86.5969 315.223 88.6356C316.319 89.6462 316.994 90.7514 317.189 91.8551C318.384 96.2657 317.66 95.1634 314.177 98.7517C313.152 99.8994 311.688 100.882 309.868 101.643C304.638 103.661 296.302 102.48 290.541 99.8411C284.78 97.2025 281.086 93.4437 278.029 89.7235C276.395 87.8383 275.082 85.8969 274.11 83.9284C273.292 81.9498 272.793 79.9632 272.62 77.9938C271.597 70.2693 270.045 61.6467 272.104 54.2342C274.976 54.5231 275.058 60.9688 277.44 62.281C280.423 63.9274 280.397 71.1043 281.278 73.0399C283.354 77.6905 283.341 79.7368 289.972 82.5405Z" fill="#2F2E41"/>
<path d="M320.188 88.5487C316.834 88.9026 316.787 77.0393 313.423 77.3822C310.943 74.934 305.006 73.1611 303.06 70.5041C304.736 68.7171 311.992 70.5589 316.508 72.35C320.129 73.7204 318.534 85.5534 320.188 88.5487Z" fill="#2F2E41"/>
<path d="M292.417 87.209C295.72 87.8743 296.966 76.0714 300.28 76.7267C302.995 74.5215 309.083 73.3111 311.288 70.8482C309.801 68.9132 302.393 70.0692 297.717 71.4303C293.975 72.4563 294.366 84.3823 292.417 87.209Z" fill="#2F2E41"/>
</g>
<defs>
<clipPath id="clip0_962_5668">
<rect width="445" height="445" fill="white"/>
</clipPath>
</defs>
</svg>
