<?xml version="1.0" encoding="UTF-8"?> <svg xmlns="http://www.w3.org/2000/svg" width="278" height="89" viewBox="0 0 278 89" fill="none"> <path d="M18.2361 24.8865C18.2361 26.9115 19.3346 26.4272 20.4332 26.5373L26.2555 26.8674C32.0854 27.1315 33.8113 30.646 33.9455 32.3702C38.2518 31.1376 44.6747 34.0578 47.3479 35.6719C59.9813 40.9546 85.358 41.1747 94.6957 41.1747C104.033 41.1747 153.798 39.1937 157.863 38.8636C161.928 38.5334 205.98 34.7915 217.734 34.1312C229.489 33.4708 245.418 34.1312 249.592 34.7915C253.767 35.4518 263.544 37.3228 269.916 36.8826C276.287 36.4423 277.1 37.3448 277.276 38.3133C277.716 40.7345 275.518 42.6055 271.344 49.2088C268.004 54.4915 262.775 52.9507 260.578 51.52C245.748 44.0362 240.535 44.3664 228.39 44.3664C219.382 44.3664 159.73 50.4195 139.956 51.52C124.137 52.4005 61.739 53.8679 32.5173 54.4915C32.2537 66.3776 42.1467 80.7426 43.8311 86.172C23.354 91.983 3.88157 87.4717 -3.70484e-06 84.7569C4.94351 57.9033 1.53798 41.8351 6.04207 21.915C10.5462 1.99482 19.5543 -0.206298 19.8839 0.0138143C20.2135 0.233926 18.2361 22.3552 18.2361 24.8865Z" fill="#BF4434"></path> </svg> 