<svg width="1089" height="262" viewBox="0 0 1089 262" fill="none" xmlns="http://www.w3.org/2000/svg">
<path d="M0 258.513V3.4867H46.1934V111.45H164.354V3.4867H210.672V258.513H164.354V150.177H46.1934V258.513H0Z" fill="white"/>
<path d="M260.912 258.513V3.4867H426.76V42.2139H307.105V111.45H418.169V150.177H307.105V219.786H427.756V258.513H260.912Z" fill="white"/>
<path d="M473.887 258.513V3.4867H520.08V219.786H632.389V258.513H473.887Z" fill="white"/>
<path d="M672.481 258.513V3.4867H718.675V219.786H830.983V258.513H672.481Z" fill="white"/>
<path d="M1089 131C1089 158.478 1083.85 182.014 1073.56 201.606C1063.35 221.114 1049.41 236.057 1031.73 246.434C1014.13 256.811 994.165 262 971.836 262C949.507 262 929.502 256.811 911.822 246.434C894.224 235.974 880.279 220.99 869.986 201.481C859.776 181.889 854.671 158.395 854.671 131C854.671 103.522 859.776 80.0279 869.986 60.519C880.279 40.9271 894.224 25.9427 911.822 15.5656C929.502 5.18853 949.507 0 971.836 0C994.165 0 1014.13 5.18853 1031.73 15.5656C1049.41 25.9427 1063.35 40.9271 1073.56 60.519C1083.85 80.0279 1089 103.522 1089 131ZM1042.56 131C1042.56 111.657 1039.53 95.3444 1033.47 82.0618C1027.49 68.6961 1019.19 58.6096 1008.57 51.8023C997.941 44.9119 985.698 41.4667 971.836 41.4667C957.973 41.4667 945.73 44.9119 935.105 51.8023C924.48 58.6096 916.138 68.6961 910.078 82.0618C904.102 95.3444 901.114 111.657 901.114 131C901.114 150.343 904.102 166.697 910.078 180.063C916.138 193.345 924.48 203.432 935.105 210.322C945.73 217.13 957.973 220.533 971.836 220.533C985.698 220.533 997.941 217.13 1008.57 210.322C1019.19 203.432 1027.49 193.345 1033.47 180.063C1039.53 166.697 1042.56 150.343 1042.56 131Z" fill="white"/>
</svg>
